<svg width="345" height="106" viewBox="0 0 345 106" fill="none" xmlns="http://www.w3.org/2000/svg">
<path d="M32.4143 0.0658819H47.3697L46.3156 27.2754L46.7108 46.1838H32.4143L15.4166 20.4236L14.4283 20.3578L14.1648 27.2754L14.4942 46.1838H0.263531V4.41414L0 0.0658819H15.2189L31.5578 25.299L32.4143 25.3648V0.0658819Z" fill="#404040"/>
<path d="M50.0616 0.0658819H65.017L63.9629 27.2754L64.2923 46.1838H50.0616V0.0658819Z" fill="#404040"/>
<path d="M67.3198 15.746C69.0986 8.30122 75.2916 0 88.5999 0H111.066V12.9789C110.802 12.9789 90.774 12.913 90.5764 12.913C86.887 12.913 80.6281 14.3624 80.4963 22.5978V23.5201C80.6281 31.7555 86.887 33.2049 90.5764 33.2049C90.774 33.139 110.802 33.139 111.066 33.139L111.329 46.1179H88.5999C72.3928 46.1179 66.7927 33.7978 66.7927 25.7601C66.7927 22.1366 66.4633 19.2378 67.3198 15.746Z" fill="#404040"/>
<path d="M135.757 33.6661L151.503 33.0072V46.1838H122.778C115.333 46.1838 114.213 38.8708 113.95 35.1155V5.46827L113.752 0L128.971 0.0658819L128.839 5.53415V26.8143C128.839 34.7202 135.757 33.6661 135.757 33.6661Z" fill="#404040"/>
<path d="M185.465 46.1838L182.83 36.0378L179.14 35.7084L171.959 35.8402L169.192 46.1838H153.841L168.665 0.0658819H186.124L200.816 46.1838H185.465ZM174.99 24.5743H179.997L178.086 17.1295H176.966L174.99 24.5743Z" fill="#404040"/>
<path d="M201.645 46.1838L202.238 33.7319L202.304 29.8449C211.988 33.139 223.847 33.9955 227.734 33.9955C230.04 33.9955 231.094 33.6661 231.16 32.4802C231.292 31.2943 229.645 30.3719 227.405 29.6472C222.859 28.1978 214.756 26.1554 212.12 25.0354C208.628 23.586 206.915 22.9272 205.334 21.7413C201.908 19.106 201.645 13.506 201.645 13.506C201.184 0.922358 213.108 0.0658819 218.643 0.0658819H245.918L245.325 12.5177L245.259 16.4048C235.574 13.1107 224.967 12.5836 220.685 12.8471C218.116 12.9789 216.403 13.4401 216.271 14.8895C216.205 16.0095 217.061 16.6683 219.894 17.5248C223.781 18.6448 227.076 19.7648 229.843 20.5554C236.036 22.3342 239.857 23.8495 242.492 26.419C246.182 29.9766 245.918 34.4567 245.918 34.4567C246.313 46.9744 233.4 46.1838 231.358 46.1838H201.645Z" fill="#404040"/>
<path d="M27.8025 50.5507H42.7579L41.7038 77.7603L42.0332 96.6686H27.8025V79.012H14.2307L14.4942 96.6686H0.263531V50.5507H15.2189L14.5601 68.2073H27.8025V50.5507Z" fill="#404040"/>
<path d="M75.3173 96.6686L72.682 86.5227L68.9926 86.1933L61.8114 86.325L59.0443 96.6686H43.6936L58.5172 50.5507H75.9762L90.668 96.6686H75.3173ZM64.842 75.0591H69.8491L67.9385 67.6143H66.8185L64.842 75.0591Z" fill="#404040"/>
<path d="M116.549 50.5507H130.384L130.12 56.9413V76.7062C130.186 84.678 126.431 96.8663 111.541 96.8663H107.193C91.1837 96.8663 88.219 84.678 88.219 76.7062V57.3366L88.0214 50.5507H101.791V74.2026C101.791 82.6356 105.48 84.085 109.17 84.0191C113.254 84.0191 116.549 82.6356 116.549 74.2026C116.549 66.4943 116.549 58.259 116.549 50.5507Z" fill="#404040"/>
<path d="M178.058 50.5507H198.152L197.954 55.6237V96.6686H183.724L184.053 77.7603L183.79 70.8426L182.801 70.9085L173.973 96.6686H156.975L148.147 70.9085L147.159 70.8426L146.895 77.7603L147.225 96.6686H132.994V55.6237L132.796 50.5507H152.693L164.684 82.2403H166.001L178.058 50.5507Z" fill="#404040"/>
<path d="M230.759 96.6686L228.124 86.5227L224.435 86.1933L217.253 86.325L214.486 96.6686H199.136L213.959 50.5507H231.418L246.11 96.6686H230.759ZM220.284 75.0591H225.291L223.38 67.6143H222.26L220.284 75.0591Z" fill="#404040"/>
<path d="M280.247 50.5507H295.202L294.148 77.7603L294.543 96.6686H280.247L263.249 70.9085L262.261 70.8426L261.997 77.7603L262.326 96.6686H248.096V54.899L247.832 50.5507H263.051L279.39 75.7838L280.247 75.8497V50.5507Z" fill="#404040"/>
<path d="M330.045 50.5507H345L343.946 77.7603L344.341 96.6686H330.045L313.047 70.9085L312.059 70.8426L311.795 77.7603L312.125 96.6686H297.894V54.899L297.63 50.5507H312.849L329.188 75.7838L330.045 75.8497V50.5507Z" fill="#404040"/>
<path d="M266.474 102.222C266.868 102.454 267.474 102.969 267.474 103.878C267.474 104.029 267.464 104.181 267.423 104.322C267.151 105.332 265.979 105.756 264.758 105.756H260.184V98.6981H264.758C265.979 98.6981 267.151 99.1222 267.423 100.132C267.464 100.273 267.474 100.425 267.474 100.576C267.474 101.485 266.868 101.99 266.474 102.222ZM264.627 103.343C264.697 103.272 264.727 103.191 264.727 103.1C264.727 103.01 264.697 102.919 264.627 102.858C264.566 102.797 264.475 102.757 264.384 102.757H262.688V103.444H264.384C264.475 103.444 264.566 103.403 264.627 103.343ZM264.627 101.586C264.727 101.495 264.758 101.344 264.707 101.222C264.647 101.091 264.525 101.01 264.384 101.01H262.688V101.687H264.384C264.475 101.687 264.566 101.657 264.627 101.586Z" fill="white"/>
<path d="M273.816 98.4861C275.008 98.4861 275.987 99.4554 275.987 100.657V103.747C275.987 104.938 275.008 105.917 273.816 105.917H270.282C269.707 105.917 269.152 105.685 268.738 105.281C268.334 104.867 268.101 104.322 268.111 103.747V100.657C268.101 100.081 268.334 99.5261 268.738 99.1222C269.152 98.7183 269.697 98.4861 270.282 98.4861H273.816ZM273.15 102.959V101.444C273.15 101.051 272.827 100.728 272.433 100.728H271.656C271.262 100.728 270.939 101.051 270.939 101.444V102.959C270.939 103.353 271.262 103.676 271.656 103.676H272.433C272.827 103.676 273.15 103.353 273.15 102.959Z" fill="white"/>
<path d="M282.776 102.384C284.25 102.797 284.159 105.756 284.159 105.756H281.201V103.373C281.201 102.909 280.565 102.959 280.565 102.959H279.303V105.756H276.798V98.6981H281.372C282.756 98.6981 284.088 99.2433 284.088 100.576C284.088 101.909 282.776 102.384 282.776 102.384ZM281.241 101.586C281.342 101.495 281.372 101.344 281.322 101.212C281.261 101.091 281.14 101.01 281.009 101.01H279.303V101.687H281.009C281.09 101.687 281.181 101.646 281.241 101.586Z" fill="white"/>
<path d="M289.592 98.688H292.419V105.766H289.642L287.683 102.303V105.766H284.775V98.688H287.885L289.592 101.263V98.688Z" fill="white"/>
<path d="M303.067 98.6981C303.622 98.6981 304.167 98.9202 304.561 99.314C304.955 99.7078 305.177 100.243 305.177 100.808V103.656C305.177 104.211 304.955 104.746 304.561 105.15C304.167 105.544 303.622 105.766 303.067 105.766H297.584V98.6981H303.067ZM302.451 103.121V101.333C302.451 101.152 302.299 101.01 302.128 101.01H299.826V103.444H302.128C302.309 103.444 302.451 103.302 302.451 103.121Z" fill="white"/>
<path d="M308.623 105.766H305.877V98.688H308.623V105.766Z" fill="white"/>
<path d="M317.302 101.586H314.474V101.444C314.474 101.051 314.151 100.728 313.758 100.728H312.98C312.788 100.728 312.607 100.798 312.475 100.94C312.344 101.071 312.263 101.253 312.263 101.444V102.959C312.263 103.353 312.586 103.676 312.98 103.676H313.758C314.061 103.676 314.333 103.484 314.434 103.201H313.707V102.04H317.302V103.878C317.302 104.413 317.09 104.938 316.706 105.322C316.322 105.695 315.807 105.917 315.262 105.917H311.597C310.405 105.917 309.426 104.938 309.436 103.747V100.657C309.426 100.081 309.658 99.5261 310.062 99.1222C310.476 98.7183 311.021 98.4861 311.597 98.4861H315.141C315.716 98.4861 316.262 98.7183 316.676 99.1222C317.08 99.5261 317.302 100.081 317.302 100.657V101.586Z" fill="white"/>
<path d="M320.869 105.766H318.123V98.688H320.869V105.766Z" fill="white"/>
<path d="M321.329 98.688H328.387V101.111H326.065V105.756H323.652V101.111H321.329V98.688Z" fill="white"/>
<path d="M333.283 98.7789L335.908 105.776H333.041L332.132 103.383H331.324L330.426 105.776H327.558L330.183 98.7789H333.283ZM331.365 102.232H332.102L331.728 101.253L331.365 102.232Z" fill="white"/>
<path d="M338.982 103.05H343.738V105.776H336.256V98.688H338.982V103.05Z" fill="white"/>
</svg>
